<?xml version="1.0" standalone="no"?>
<!DOCTYPE svg PUBLIC "-//W3C//DTD SVG 20010904//EN"
 "http://www.w3.org/TR/2001/REC-SVG-20010904/DTD/svg10.dtd">
<svg version="1.0" xmlns="http://www.w3.org/2000/svg"
 width="760.000000pt" height="145.000000pt" viewBox="0 0 760.000000 145.000000"
 preserveAspectRatio="xMidYMid meet">

<g transform="translate(0.000000,145.000000) scale(0.100000,-0.100000)"
fill="#000000" stroke="none">
<path d="M3829 1427 c-158 -45 -276 -189 -303 -369 l-7 -48 90 0 c91 0 91 0
91 25 0 69 71 160 152 195 125 54 274 -29 308 -171 l12 -49 80 0 80 0 -7 43
c-33 217 -185 372 -378 383 -42 2 -91 -1 -118 -9z"/>
<path d="M3855 1084 c-31 -33 -40 -82 -26 -127 17 -51 46 -72 96 -72 50 0 79
21 96 72 14 45 4 99 -26 129 -35 35 -107 34 -140 -2z"/>
<path d="M315 897 c-155 -52 -257 -172 -291 -344 -19 -91 -18 -82 -5 -157 32
-181 124 -301 276 -358 81 -31 234 -32 311 -1 63 25 140 77 155 105 10 18 5
27 -39 71 l-50 50 -34 -28 c-52 -44 -107 -65 -172 -65 -91 0 -134 17 -198 81
-70 70 -94 136 -85 240 13 151 112 255 253 267 73 5 116 -7 186 -54 l51 -35
49 48 c26 26 48 50 48 54 0 16 -70 74 -125 102 -55 28 -69 31 -175 34 -77 2
-128 -2 -155 -10z"/>
<path d="M5190 465 l0 -445 305 0 305 0 0 80 0 80 -205 0 -205 0 -2 363 -3
362 -97 3 -98 3 0 -446z"/>
<path d="M6041 471 c-99 -241 -181 -442 -181 -445 0 -4 44 -5 97 -4 l98 3 34
93 34 92 192 0 193 0 37 -95 37 -95 100 0 c57 0 98 4 96 9 -1 5 -84 206 -183
445 l-180 436 -96 0 -96 0 -182 -439z m341 68 c32 -83 58 -155 58 -160 0 -5
-57 -9 -126 -9 -97 0 -125 3 -121 13 67 179 122 316 126 312 2 -3 31 -73 63
-156z"/>
<path d="M6840 465 l0 -446 283 3 c273 3 284 4 335 27 29 13 68 42 87 63 87
102 64 272 -46 341 l-48 29 30 25 c87 74 99 223 24 310 -19 23 -58 51 -87 64
-51 23 -64 24 -315 27 l-263 3 0 -446z m421 285 c67 -12 99 -44 99 -99 0 -83
-59 -111 -235 -111 l-95 0 0 103 c0 57 3 107 7 110 10 11 163 8 224 -3z m84
-374 c41 -18 55 -42 55 -99 0 -84 -51 -107 -242 -107 l-128 0 0 110 0 110 140
0 c99 0 151 -4 175 -14z"/>
<path d="M910 465 l0 -435 80 0 80 0 0 435 0 435 -80 0 -80 0 0 -435z"/>
<path d="M1180 825 l0 -74 133 -3 132 -3 3 -358 2 -357 80 0 80 0 0 360 0 360
130 0 130 0 0 75 0 75 -345 0 -345 0 0 -75z"/>
<path d="M1956 868 c9 -18 79 -144 156 -280 l138 -248 0 -155 0 -155 80 0 80
0 0 148 0 148 136 245 c75 134 147 263 160 287 l25 42 -80 0 -79 0 -109 -195
c-74 -134 -113 -195 -123 -193 -8 2 -63 89 -121 193 l-106 190 -87 3 -87 3 17
-33z"/>
<path d="M2840 465 l0 -435 305 0 305 0 0 70 0 70 -222 2 -223 3 -3 113 -3
112 191 0 190 0 0 70 0 70 -190 0 -191 0 3 108 3 107 213 3 212 2 0 70 0 70
-295 0 -295 0 0 -435z"/>
<path d="M3533 893 c2 -4 72 -130 156 -279 l151 -272 0 -156 0 -156 85 0 85 0
0 156 0 156 151 272 c84 149 154 274 156 279 2 4 -31 7 -75 7 l-79 0 -109
-195 c-71 -128 -113 -195 -123 -193 -8 2 -62 89 -120 193 l-107 190 -88 3
c-48 1 -86 -1 -83 -5z"/>
<path d="M4430 465 l0 -435 305 0 305 0 0 70 0 70 -222 2 -223 3 -3 113 -3
112 193 0 193 0 0 70 0 70 -193 0 -193 0 3 108 3 107 213 3 212 2 0 70 0 70
-295 0 -295 0 0 -435z"/>
</g>
</svg>
